<svg width="29" height="32" viewBox="0 0 29 32" fill="none" xmlns="http://www.w3.org/2000/svg">
<path fill-rule="evenodd" clip-rule="evenodd" d="M1.33753 4.39339L19.0744 0.90162C19.7885 0.758208 20.4706 1.42538 20.4068 2.05515L17.7164 28.6737C17.6526 29.3034 17.1108 29.7524 16.384 29.8272L3.88776 31.1117C3.16095 31.1865 2.61897 30.5942 2.55521 29.9582L0.0049777 5.54692C-0.0651537 4.91092 0.61709 4.53057 1.33753 4.39339Z" fill="#FDC942"/>
<path fill-rule="evenodd" clip-rule="evenodd" d="M27.4519 11.7086L13.7191 10.1373C13.1198 10.0687 12.5843 10.4116 12.6098 10.7483L13.7191 26.9913C13.7446 27.3218 14.2291 27.6522 14.8284 27.5961L25.2014 26.5798C25.8007 26.5236 26.2533 26.3054 26.3107 25.9749L28.5613 12.3134C28.6123 11.9829 28.0512 11.7771 27.4519 11.7086ZM20.3691 13.0054L23.2383 13.3359C23.3658 13.3484 23.4804 13.392 23.4677 13.4606L22.9959 16.3164C22.9831 16.385 22.8876 16.4286 22.7664 16.4411L20.5986 16.6531C20.4711 16.6656 20.3691 16.597 20.3691 16.5284L20.1395 13.1364C20.1332 13.0678 20.2416 12.993 20.3691 13.0054ZM24.494 13.4535L26.6936 13.7029C26.7892 13.7154 26.8785 13.7466 26.8721 13.8027L26.5087 15.9913C26.5023 16.0412 26.4258 16.0786 26.3301 16.0911L24.6725 16.2532C24.5769 16.2657 24.5004 16.2095 24.494 16.1534L24.3155 13.5533C24.3155 13.4972 24.3984 13.4411 24.494 13.4535ZM23.8503 17.9616L26.0051 17.7184C26.1007 17.706 26.19 17.7621 26.1836 17.8182L25.8202 20.0068C25.8138 20.0629 25.7374 20.0941 25.6418 20.1066L23.9841 20.2687C23.8885 20.2749 23.812 20.225 23.8056 20.1689L23.6717 18.0676C23.6717 18.0053 23.7546 17.9741 23.8503 17.9616Z" fill="#F3920A"/>
<path fill-rule="evenodd" clip-rule="evenodd" d="M19.5211 10.798L17.8506 27.2966L14.8222 27.5897C14.2228 27.6458 13.7383 27.3153 13.7128 26.9849L12.6034 10.7419C12.5779 10.4114 13.1135 10.0685 13.7128 10.1371L19.5211 10.798Z" fill="#EB572C"/>
</svg>
